<svg xmlns="http://www.w3.org/2000/svg" viewBox="0 0 1410.92 276.18">
  <defs>
    <style>
      .a{fill:#175cff;}
      .b{fill:#071c4d;}
      @media (prefers-color-scheme:dark){
      .a{fill:#ffffff;}
      .b{fill:#ffffff;}}</style>
  </defs>
  <title>logo_accessibit</title>
  <path class="a"
    d="M138.52,160.55h-5.7a5.7,5.7,0,0,1-5.69-5.7V120.68a5.69,5.69,0,0,1,5.69-5.69h5.7a5.7,5.7,0,0,1,5.7,5.69v34.17A5.7,5.7,0,0,1,138.52,160.55Z" />
  <path class="a"
    d="M110,200.42h-5.69a5.7,5.7,0,0,1-5.7-5.7V80.81a5.7,5.7,0,0,1,5.7-5.69H110a5.7,5.7,0,0,1,5.7,5.69V194.72A5.7,5.7,0,0,1,110,200.42Z" />
  <path class="a"
    d="M81.56,257.37H75.87a5.7,5.7,0,0,1-5.7-5.69V23.86a5.7,5.7,0,0,1,5.7-5.7h5.69a5.7,5.7,0,0,1,5.7,5.7V251.68A5.7,5.7,0,0,1,81.56,257.37Z" />
  <path class="a"
    d="M53.09,217.51h-5.7a5.7,5.7,0,0,1-5.69-5.7V63.73A5.7,5.7,0,0,1,47.39,58h5.7a5.7,5.7,0,0,1,5.69,5.7V211.81A5.7,5.7,0,0,1,53.09,217.51Z" />
  <path class="a"
    d="M24.61,177.64h-5.7a5.7,5.7,0,0,1-5.69-5.7V103.59a5.69,5.69,0,0,1,5.69-5.69h5.7a5.69,5.69,0,0,1,5.69,5.69v68.35A5.7,5.7,0,0,1,24.61,177.64Z" />
  <path class="a"
    d="M252.43,167.67h-5.69A5.7,5.7,0,0,1,241,162V113.56a5.7,5.7,0,0,1,5.7-5.69h5.69a5.7,5.7,0,0,1,5.7,5.69V162A5.7,5.7,0,0,1,252.43,167.67Z" />
  <path class="a"
    d="M224,201.84h-5.69a5.7,5.7,0,0,1-5.7-5.69V79.39a5.7,5.7,0,0,1,5.7-5.7H224a5.7,5.7,0,0,1,5.7,5.7V196.15A5.7,5.7,0,0,1,224,201.84Z" />
  <path class="a"
    d="M195.48,257.37h-5.7a5.7,5.7,0,0,1-5.7-5.69V23.86a5.7,5.7,0,0,1,5.7-5.7h5.7a5.7,5.7,0,0,1,5.69,5.7V251.68A5.69,5.69,0,0,1,195.48,257.37Z" />
  <path class="a"
    d="M167,217.51h-5.7a5.7,5.7,0,0,1-5.69-5.7V63.73A5.7,5.7,0,0,1,161.3,58H167a5.7,5.7,0,0,1,5.69,5.7V211.81A5.7,5.7,0,0,1,167,217.51Z" />
  <path class="b"
    d="M374.6,168.34l-12.05,43.42H322.89L374.6,42.58h50.2l52.46,169.18H436.1L423,168.34Zm42.92-28.62L407,103.83c-3-10-6-22.59-8.53-32.63h-.51c-2.51,10-5,22.84-7.78,32.63l-10,35.89Z" />
  <path class="b"
    d="M587.2,208.75c-6.77,3-19.58,5.77-34.13,5.77-39.66,0-65-24.35-65-63,0-35.89,24.59-65.26,70.28-65.26,10,0,21.08,1.76,29.11,4.77l-6,28.36c-4.52-2-11.3-3.76-21.34-3.76-20.08,0-33.13,14.3-32.88,34.38,0,22.59,15.06,34.39,33.64,34.39,9,0,16.06-1.5,21.84-4Z" />
  <path class="b"
    d="M697.65,208.75c-6.78,3-19.58,5.77-34.14,5.77-39.66,0-65-24.35-65-63,0-35.89,24.6-65.26,70.28-65.26,10,0,21.09,1.76,29.12,4.77l-6,28.36c-4.52-2-11.3-3.76-21.34-3.76-20.08,0-33.13,14.3-32.88,34.38,0,22.59,15.06,34.39,33.63,34.39,9,0,16.07-1.5,21.84-4Z" />
  <path class="b"
    d="M745.34,162.56c1.26,15.82,16.82,23.35,34.64,23.35a108.23,108.23,0,0,0,33.89-5l5,25.85c-12.55,5-27.87,7.78-44.43,7.78-41.67,0-65.51-24.35-65.51-62.75,0-31.12,19.32-65.51,62-65.51,39.66,0,54.72,30.87,54.72,61.24a90.93,90.93,0,0,1-1.25,15.06Zm44.93-26.1c0-9.29-4-24.85-21.59-24.85-16.06,0-22.59,14.56-23.59,24.85Z" />
  <path class="b"
    d="M848.26,178.38c7,4.26,21.58,9.28,32.88,9.28,11.54,0,16.31-4,16.31-10.29s-3.76-9.28-18.07-14.05C854,154.78,844.24,141,844.49,126.67c0-23.09,19.58-40.41,50-40.41,14.31,0,27.11,3.26,34.64,7l-6.78,26.35c-5.52-3-16.06-7-26.6-7-9.29,0-14.56,3.77-14.56,10,0,5.78,4.77,8.79,19.83,14.06,23.34,8,33.13,19.83,33.38,37.9,0,22.84-18.07,39.91-53.21,39.91-16.07,0-30.37-3.76-39.66-8.78Z" />
  <path class="b"
    d="M957.19,178.38c7,4.26,21.59,9.28,32.88,9.28,11.55,0,16.32-4,16.32-10.29s-3.77-9.28-18.07-14.05C963,154.78,953.17,141,953.43,126.67c0-23.09,19.57-40.41,50-40.41,14.3,0,27.11,3.26,34.64,7l-6.78,26.35c-5.52-3-16.07-7-26.61-7-9.29,0-14.56,3.77-14.56,10,0,5.78,4.77,8.79,19.83,14.06,23.35,8,33.14,19.83,33.39,37.9,0,22.84-18.08,39.91-53.22,39.91-16.06,0-30.37-3.76-39.66-8.78Z" />
  <path class="b"
    d="M1105.79,54.88c0,10.54-8,19.08-20.59,19.08-12,0-20.08-8.54-19.82-19.08-.26-11,7.78-19.33,20.08-19.33S1105.54,43.84,1105.79,54.88Zm-39.41,156.88V89h38.15V211.76Z" />
  <path class="b"
    d="M1138.92,44.84c9.54-2,24.59-3.51,39.91-3.51,21.83,0,35.89,3.76,46.43,12.3,8.79,6.52,14.06,16.56,14.06,29.87,0,16.31-10.79,30.62-28.62,37.15v.5c16.07,4,34.89,17.32,34.89,42.42a45.59,45.59,0,0,1-14.3,33.88c-11.8,10.8-30.88,15.82-58.49,15.82a255.83,255.83,0,0,1-33.88-2Zm21.83,69.28h19.83c23.1,0,36.65-12.05,36.65-28.36,0-19.83-15.06-27.61-37.15-27.61-10,0-15.81.75-19.33,1.5Zm0,81.08c4.27.75,10.55,1,18.33,1,22.59,0,43.42-8.28,43.42-32.88,0-23.1-19.83-32.63-43.67-32.63h-18.08Z" />
  <path class="b"
    d="M1298.81,56.14c.25,7.53-5.27,13.55-14.06,13.55-7.78,0-13.3-6-13.3-13.55a13.46,13.46,0,0,1,13.8-13.81C1293.54,42.33,1298.81,48.36,1298.81,56.14Zm-24.6,155.62V90.27h22.09V211.76Z" />
  <path class="b"
    d="M1359.55,55.38V90.27h31.63v16.82h-31.63V172.6c0,15.06,4.27,23.6,16.57,23.6a48.8,48.8,0,0,0,12.8-1.51l1,16.57c-4.26,1.76-11,3-19.58,3-10.29,0-18.57-3.26-23.84-9.29-6.28-6.52-8.54-17.32-8.54-31.62V107.09h-18.82V90.27H1338V61.16Z" />
</svg>
